<?xml version="1.0" encoding="UTF-8"?>
<!DOCTYPE svg PUBLIC "-//W3C//DTD SVG 1.1//EN" "http://www.w3.org/Graphics/SVG/1.1/DTD/svg11.dtd">
<!-- Creator: CorelDRAW -->
<svg xmlns="http://www.w3.org/2000/svg" xml:space="preserve" width="3056.07mm" height="728.693mm" version="1.1" style="shape-rendering:geometricPrecision; text-rendering:geometricPrecision; image-rendering:optimizeQuality; fill-rule:evenodd; clip-rule:evenodd"
viewBox="0 0 51751.95 12339.77"
 xmlns:xlink="http://www.w3.org/1999/xlink"
 xmlns:xodm="http://www.corel.com/coreldraw/odm/2003">
 <defs>
  <style type="text/css">
   <![CDATA[
    .fil1 {fill:#C4A661;fill-rule:nonzero}
    .fil0 {fill:#E6E7E8;fill-rule:nonzero}
   ]]>
  </style>
 </defs>
 <g id="Camada_x0020_1">
  <metadata id="CorelCorpID_0Corel-Layer"/>
  <path class="fil0" d="M50430.43 2977.65l-10.57 -126.8c-73.97,-877.08 -707.99,-1289.19 -1669.6,-1289.19 -845.37,0 -1806.98,327.58 -1806.98,1098.98 0,390.98 232.47,612.89 644.59,771.4 211.34,84.54 454.39,147.94 729.14,211.34 274.74,52.83 570.62,105.67 855.93,169.08 1172.95,232.47 2483.27,591.75 2483.27,2060.59 0,1542.81 -1521.67,2113.43 -2927.09,2113.43 -570.63,0 -1225.79,-84.53 -1743.58,-338.15 -718.56,-359.28 -1257.49,-1046.14 -1257.49,-1817.54l0 -285.31 1014.44 0 10.57 126.8c126.8,972.17 887.64,1394.86 1954.92,1394.86 887.64,0 1880.95,-295.88 1880.95,-1130.68 0,-433.25 -243.04,-697.43 -644.6,-877.07 -200.77,-95.11 -454.39,-158.51 -718.57,-221.92 -274.74,-63.4 -560.06,-126.8 -855.93,-179.64 -1141.25,-232.48 -2451.57,-549.49 -2451.57,-1944.35 0,-1437.13 1458.27,-2081.72 2789.72,-2081.72 1151.82,0 2250.8,443.81 2631.21,1542.8 42.27,116.24 63.4,232.47 73.97,338.15l0 327.58 0 137.37 -982.74 0zm-7177.84 5051.09l-524.62 -1056.76 -735.23 -1489.92 2.37 0c-475.52,-951.04 -951.04,-1912.65 -1437.13,-2853.12 -73.97,126.8 -147.94,274.74 -221.91,412.12 -116.24,243.04 -211.34,486.09 -317.01,697.43l-756.97 1541.96 -784.98 1595.22c-175.88,353.17 -350.3,707.81 -518.64,1068.53l-42.26 84.54 -1236.36 0 105.68 -200.77c1215.21,-2367.04 2430.44,-4723.51 3656.22,-7090.55l137.38 -274.74 137.37 274.74c1215.21,2367.04 2430.44,4734.08 3687.93,7090.55l105.68 200.77 -1257.49 0zm-22616.27 0l-524.63 -1056.76 -735.23 -1489.92 2.37 0c-475.52,-951.04 -951.04,-1912.65 -1437.13,-2853.12 -73.97,126.8 -147.94,274.74 -221.91,412.12 -116.24,243.04 -211.34,486.09 -317.01,697.43l-756.97 1541.96 -784.98 1595.22c-175.88,353.17 -350.3,707.81 -518.64,1068.53l-42.26 84.54 -1236.36 0 105.68 -200.77c1215.22,-2367.04 2430.44,-4723.51 3656.22,-7090.55l137.37 -274.74 137.37 274.74c1215.22,2367.04 2430.44,4734.08 3687.93,7090.55l105.68 200.77 -1257.49 0zm5031.3 0l-1067.28 0 0 -6393.12 -2451.58 0 0 -1025.01 5928.16 0 0 1025.01 -2409.3 0 0 6393.12zm5200.38 -993.31l4100.04 0 0 993.31 -5167.33 0 0 -7418.12 1067.29 0 0 6424.81z"/>
  <path class="fil0" d="M15717.23 10772.88l-191.62 0c-66.07,279.84 -274.4,467.56 -570.18,467.56 -358.74,0 -599.32,-266.23 -599.32,-641.69 0,-375.46 244.86,-637.03 599.32,-637.03 291.51,0 506.44,185.39 570.18,467.57l191.62 0c-78.9,-380.9 -340.48,-647.13 -761.8,-647.13 -478.45,0 -794.05,350.19 -794.05,818.92 0,468.74 315.6,819.31 794.05,819.31 418.99,0 680.95,-264.29 761.8,-647.52zm1364.62 -968.57l-1103.44 0 0 1593.94 1121.7 0 0 -178.4 -926.98 0 0 -541.42 851.58 0 0 -180.73 -851.58 0 0 -514.99 908.72 0 0 -178.4zm497.88 185.4l478.06 0c261.58,0 331.15,133.31 331.15,261.96 0,143.03 -95.61,294.23 -359.52,294.23l-449.69 0 0 -556.19zm0 731.86l472.23 0c226.59,0 249.52,158.2 275.57,331.54 15.93,118.15 34.2,242.52 117.38,344.74l233.21 0c-113.88,-123.99 -137.59,-256.13 -160.52,-384.78 -29.54,-160.52 -57.91,-316.77 -190.06,-382.85 157.03,-62.57 256.13,-219.59 256.13,-378.56 -3.5,-244.86 -155.85,-447.36 -481.56,-447.36l-717.09 0 0 1593.55 194.72 0 0 -676.29zm2393.81 -918.81l-1224.7 0 0 178.01 514.59 0 0 1417.87 194.34 0 0 -1417.87 515.77 0 0 -178.01zm228.15 1.94l0 1593.55 194.72 0 0 -1593.55 -194.72 0zm1110.82 -1.94l-540.25 0 0 1596.26 540.25 0c454.36,0 771.51,-328.43 771.51,-797.93 0,-469.9 -317.16,-798.33 -771.51,-798.33zm0 1410.48l-346.69 0 -2.34 -1227.03 349.03 2.33c327.65,8.16 577.56,239.42 577.56,610.21 0,375.07 -243.31,614.49 -577.56,614.49zm942.52 -612.93c0,469.51 315.21,820.09 792.11,820.09 478.46,0 793.67,-350.58 793.67,-820.09 0,-469.13 -315.21,-819.7 -793.67,-819.7 -476.9,0 -792.11,350.58 -792.11,819.7zm194.73 -2.33c0,-375.85 244.47,-637.81 597.38,-637.81 353.69,0 599.72,261.96 599.72,637.81 0,375.84 -241.36,642.46 -599.72,642.46 -357.57,0 -597.38,-266.62 -597.38,-642.46zm733.03 -1103.83c111.16,0 177.23,-57.14 177.23,-161.69 0,-21.76 -4.67,-51.3 -14.77,-91.34l-217.27 0 -1.16 60.64c-34.21,-9.33 -41.2,-11.66 -47.81,-14.78 -54.8,-18.27 -95.61,-30.7 -141.87,-30.7 -112.71,0 -176.06,63.74 -176.06,170.63 0,20.6 4.66,48.97 12.43,88.61l216.88 0 1.17 -65.68 28.37 8.93c65.68,21.77 110.38,35.37 162.85,35.37zm2035.08 310.16l-1103.44 0 0 1593.94 1121.7 0 0 -178.4 -926.98 0 0 -541.42 851.58 0 0 -180.73 -851.58 0 0 -514.99 908.71 0 0 -178.4zm403.44 1031.53l-186.95 0c0,302.77 114.26,584.17 591.16,584.17 359.14,0 535.59,-191.61 535.59,-450.86 0,-354.85 -286.84,-439.2 -540.25,-513.04 -182.29,-54.81 -347.47,-108.06 -353.3,-253.8l0 -4.28c2.34,-117.37 91.34,-241.36 330.76,-241.36 270.12,0 337.36,187.72 356.8,351.35l159.35 0 24.1 -12.43c-21.77,-209.11 -116.6,-518.87 -540.25,-518.87 -436.09,0 -524.32,260.79 -524.32,418.99 0,302.38 246.02,371.96 484.28,439.97 208.72,60.24 409.26,117.38 409.26,333.48 0,135.26 -67.24,270.91 -342.03,270.91 -373.9,0 -405.38,-247.19 -405.38,-366.52l1.17 -37.7zm3245 -1031.53l-1103.44 0 0 1593.94 1121.7 0 0 -178.4 -926.98 0 0 -541.42 851.58 0 0 -180.73 -851.58 0 0 -514.99 908.71 0 0 -178.4zm1314.48 1031.53l-186.95 0c0,302.77 114.26,584.17 591.16,584.17 359.13,0 535.59,-191.61 535.59,-450.86 0,-354.85 -286.84,-439.2 -540.25,-513.04 -182.29,-54.81 -347.47,-108.06 -353.3,-253.8l0 -4.28c2.34,-117.37 91.33,-241.36 330.76,-241.36 270.12,0 337.36,187.72 356.8,351.35l159.35 0 24.1 -12.43c-21.77,-209.11 -116.6,-518.87 -540.25,-518.87 -436.09,0 -524.32,260.79 -524.32,418.99 0,302.38 246.02,371.96 484.28,439.97 208.72,60.24 409.26,117.38 409.26,333.48 0,135.26 -67.23,270.91 -342.03,270.91 -373.9,0 -405.38,-247.19 -405.38,-366.52l1.17 -37.7zm1091.77 -234.75c0,468.74 315.6,819.31 793.28,819.31 478.06,0 792.5,-350.58 792.5,-819.31 0,-468.73 -314.44,-818.92 -792.5,-818.92 -477.68,0 -793.28,350.19 -793.28,818.92zm194.73 -2.33c0,-375.46 244.86,-637.03 598.55,-637.03 354.07,0 598.55,261.57 598.55,637.03 0,375.46 -239.81,641.69 -598.55,641.69 -358.35,0 -598.55,-266.23 -598.55,-641.69zm1858.23 -795.21l-193.56 0 0 1593.16 1120.53 0 0 -178.79 -926.97 0 0 -1414.37zm1557.79 1602.09l160.52 0c285.67,-3.5 478.84,-213.38 478.84,-462.9l0 -1139.97 -185.01 0 0 1064.96c0,280.23 -149.25,343.97 -293.84,343.97l-156.25 0c-145.75,0 -313.27,-89.01 -313.27,-306.66l0 -1102.27 -184.22 0 0 1149.3c0,286.84 257.29,453.58 493.22,453.58zm2449.78 -632.75l-191.22 0c-66.08,279.84 -274.4,467.56 -570.18,467.56 -357.57,0 -597.38,-266.23 -597.38,-641.69 0,-375.46 244.47,-637.03 597.38,-637.03 291.12,0 506.44,185.39 570.18,467.57l191.22 0c-78.51,-380.9 -340.47,-647.13 -761.41,-647.13 -476.9,0 -792.11,350.19 -792.11,818.92 0,432.2 268.96,764.51 685.22,813.48l-99.89 195.89 66.08 0c87.45,0 98.72,24.09 98.72,54.8 0,22.93 -23.71,36.53 -59.08,36.53 -38.48,0 -94.06,-26.43 -163.63,-84.34l0 206c46.64,36.54 105.72,53.64 164.79,53.64 107.67,0 242.92,-60.24 242.92,-211.82 0,-84.35 -41.98,-142.26 -105.72,-172.96l37.7 -75.4c375.84,-29.54 610.21,-284.51 686.39,-644.03zm161.3 -172.57c0,469.51 315.21,820.09 792.11,820.09 478.46,0 793.67,-350.58 793.67,-820.09 0,-469.13 -315.21,-819.7 -793.67,-819.7 -476.9,0 -792.11,350.58 -792.11,819.7zm194.73 -2.33c0,-375.85 244.47,-637.81 597.38,-637.81 353.69,0 599.72,261.96 599.72,637.81 0,375.84 -241.36,642.46 -599.72,642.46 -357.57,0 -597.38,-266.62 -597.38,-642.46zm733.03 -1103.83c111.16,0 177.23,-57.14 177.23,-161.69 0,-21.76 -4.66,-51.3 -14.77,-91.34l-217.27 0 -1.16 60.64c-34.21,-9.33 -41.2,-11.66 -47.81,-14.78 -54.8,-18.27 -95.61,-30.7 -141.86,-30.7 -112.71,0 -176.07,63.74 -176.07,170.63 0,20.6 4.66,48.97 12.43,88.61l216.88 0 1.17 -65.68 28.37 8.93c65.68,21.77 110.38,35.37 162.85,35.37zm2035.08 310.16l-1103.43 0 0 1593.94 1121.7 0 0 -178.4 -926.98 0 0 -541.42 851.58 0 0 -180.73 -851.58 0 0 -514.99 908.71 0 0 -178.4zm403.44 1031.53l-186.95 0c0,302.77 114.26,584.17 591.16,584.17 359.13,0 535.59,-191.61 535.59,-450.86 0,-354.85 -286.84,-439.2 -540.25,-513.04 -182.29,-54.81 -347.47,-108.06 -353.3,-253.8l0 -4.28c2.34,-117.37 91.34,-241.36 330.76,-241.36 270.12,0 337.36,187.72 356.8,351.35l159.35 0 24.1 -12.43c-21.77,-209.11 -116.6,-518.87 -540.25,-518.87 -436.09,0 -524.32,260.79 -524.32,418.99 0,302.38 246.03,371.96 484.28,439.97 208.72,60.24 409.27,117.38 409.27,333.48 0,135.26 -67.24,270.91 -342.03,270.91 -373.9,0 -405.38,-247.19 -405.38,-366.52l1.17 -37.7zm2039.35 -234.75c0,468.74 315.6,819.31 793.28,819.31 478.06,0 792.5,-350.58 792.5,-819.31 0,-468.73 -314.44,-818.92 -792.5,-818.92 -477.68,0 -793.28,350.19 -793.28,818.92zm194.73 -2.33c0,-375.46 244.86,-637.03 598.55,-637.03 354.07,0 598.55,261.57 598.55,637.03 0,375.46 -239.81,641.69 -598.55,641.69 -358.35,0 -598.55,-266.23 -598.55,-641.69zm2887.42 -794.05l-190.06 0 0 1274.06 -831.37 -1274.06 -201.33 0 0 1593.55 190.06 0 0 -1273.67 831.37 1273.67 201.33 0 0 -1593.55zm292.28 965.84l545.69 0 0 -205.22 -545.69 0 0 205.22zm1030.75 -967.01l-193.56 0 0 1593.16 1120.53 0 0 -178.79 -926.97 0 0 -1414.37zm1155.9 1.16l0 1593.55 194.72 0 0 -1593.55 -194.72 0zm1793.32 0l-190.06 0 0 1274.06 -831.37 -1274.06 -201.33 0 0 1593.55 190.06 0 0 -1273.67 831.37 1273.67 201.33 0 0 -1593.55zm1479.28 -0.39l-1103.43 0 0 1593.94 1121.7 0 0 -178.4 -926.98 0 0 -541.42 851.58 0 0 -180.73 -851.58 0 0 -514.99 908.71 0 0 -178.4z"/>
  <path class="fil1" d="M1527.44 3603.73l4.79 1.4c1115.58,-817.54 2454.89,-1347.79 3908.98,-1481.7 7.77,-0.71 15.55,-1.39 23.34,-2.07 46.99,-4.19 94.08,-8.02 141.31,-11.39 35.8,-2.55 71.69,-4.75 107.62,-6.82 28.34,-1.63 56.72,-3.09 85.14,-4.42 47.38,-2.23 94.88,-4.01 142.48,-5.41 13.84,-0.4 27.71,-0.72 41.57,-1.05 58.74,-1.43 117.63,-2.19 176.7,-2.24l7.64 -0.04c2109.08,0.6 4023.92,832 5435.21,2184.66l0 754.98c-81.63,-90.15 -165.46,-178.28 -251.44,-264.25 -205.96,-205.95 -424.13,-399.68 -653.33,-580.04 -435.47,118.13 -883.92,219.78 -1343.57,303.7 509.42,945.2 887.97,2124.5 1081.76,3439.38 400.68,-105.01 790.04,-224.35 1166.58,-357.08l0 558.99c-356.39,120.75 -723.28,229.99 -1099.53,326.97 51.43,481.92 78.44,979.43 78.44,1488.13 0,101.91 -1.08,203.37 -3.24,304.36l-529.87 0c2.21,-100.93 3.33,-202.4 3.33,-304.36 0,-466.06 -23.35,-921.78 -67.88,-1363.52 -1196.96,266.7 -2479.42,411.43 -3812.75,411.43 -1333.33,0 -2615.79,-144.73 -3812.75,-411.43 -44.52,441.75 -67.88,897.46 -67.88,1363.52 0,101.96 1.12,203.42 3.33,304.36l-529.87 0c-2.15,-100.98 -3.24,-202.44 -3.24,-304.36 0,-508.7 27.01,-1006.21 78.44,-1488.13 -376.83,-97.13 -744.27,-206.57 -1101.17,-327.53l0 -558.98c377.03,132.96 766.95,252.49 1168.22,357.64 193.78,-1314.88 572.33,-2494.18 1081.75,-3439.38 -459.65,-83.92 -908.09,-185.58 -1343.56,-303.7 -229.2,180.35 -447.37,374.08 -653.33,580.04 -86.55,86.55 -170.92,175.28 -253.07,266.06l0 -759.54c95.28,-91.27 192.86,-180.16 292.64,-266.58l-5.55 -1.77c161.84,-140.03 329.79,-273.17 502.78,-399.8zm1063.95 -3603.73l7157.01 0c712.94,0 1360.86,291.44 1830.4,760.98 469.55,469.54 760.98,1117.46 760.98,1830.4l0 7157.01c0,712.94 -291.44,1360.86 -760.98,1830.4 -469.53,469.54 -1117.46,760.98 -1830.4,760.98l-7157.01 0c-712.94,0 -1360.86,-291.45 -1830.4,-760.98 -469.53,-469.54 -760.98,-1117.46 -760.98,-1830.4l0 -7157.01c0,-712.94 291.45,-1360.87 760.98,-1830.4 469.54,-469.54 1117.46,-760.98 1830.4,-760.98zm7157.01 592.45l-7157.01 0c-549.4,0 -1049.07,224.97 -1411.52,587.42 -362.44,362.44 -587.42,862.12 -587.42,1411.51l0 7157.01c0,549.4 224.98,1049.07 587.42,1411.52 362.45,362.44 862.12,587.42 1411.52,587.42l7157.01 0c549.4,0 1049.07,-224.98 1411.52,-587.42 362.45,-362.45 587.42,-862.12 587.42,-1411.52l0 -7157.01c0,-549.39 -224.97,-1049.07 -587.42,-1411.51 -362.44,-362.45 -862.12,-587.42 -1411.52,-587.42zm-7326.31 7461.85c1173.59,265.13 2434.82,409.26 3748.62,409.26 1313.8,0 2575.03,-144.12 3748.62,-409.26 -184.03,-1289.6 -551.92,-2439.67 -1049.07,-3349.99 -22.82,-41.78 -45.91,-83.01 -69.25,-123.74 -846.21,125.91 -1726.55,192.45 -2630.29,192.45 -903.74,0 -1784.09,-66.54 -2630.29,-192.45 -23.35,40.73 -46.44,81.96 -69.25,123.74 -497.16,910.31 -865.05,2060.39 -1049.07,3349.99zm-215.22 -4270.49c348.16,83.82 704.39,156.87 1067.71,218.62 286.78,-443.72 606.67,-821.94 952.73,-1122 -724.56,198.85 -1404.2,506.17 -2020.44,903.39zm1645.07 306.36c748.51,100.37 1524.03,153.09 2318.77,153.09 794.74,0 1570.26,-52.72 2318.76,-153.09 -650.76,-922.17 -1455.42,-1470.43 -2318.76,-1470.43 -863.35,0 -1668.01,548.25 -2318.77,1470.43zm5214.9 -87.74c363.32,-61.74 719.55,-134.81 1067.71,-218.62 -616.24,-397.21 -1295.89,-704.54 -2020.44,-903.39 346.07,300.07 665.95,678.29 952.73,1122.01z"/>
 </g>
</svg>
