<?xml version="1.0" encoding="UTF-8"?>
<!DOCTYPE svg PUBLIC "-//W3C//DTD SVG 1.1//EN" "http://www.w3.org/Graphics/SVG/1.1/DTD/svg11.dtd">
<!-- Creator: CorelDRAW -->
<svg xmlns="http://www.w3.org/2000/svg" xml:space="preserve" width="5.5033mm" height="5.5033mm" version="1.1" style="shape-rendering:geometricPrecision; text-rendering:geometricPrecision; image-rendering:optimizeQuality; fill-rule:evenodd; clip-rule:evenodd"
viewBox="0 0 800.42 800.42"
 xmlns:xlink="http://www.w3.org/1999/xlink"
 xmlns:xodm="http://www.corel.com/coreldraw/odm/2003">
 <defs>
  <style type="text/css">
   <![CDATA[
    .fil0 {fill:#C4A660;fill-rule:nonzero}
   ]]>
  </style>
 </defs>
 <g id="Camada_x0020_1">
  <metadata id="CorelCorpID_0Corel-Layer"/>
  <path class="fil0" d="M99.08 233.76l0.31 0.1c72.36,-53.03 159.23,-87.43 253.55,-96.11 0.51,-0.06 1.02,-0.1 1.51,-0.15 3.05,-0.26 6.11,-0.51 9.18,-0.73 2.31,-0.17 4.64,-0.32 6.98,-0.45 1.83,-0.1 3.67,-0.2 5.51,-0.29 3.08,-0.15 6.15,-0.26 9.25,-0.35 0.89,-0.03 1.79,-0.04 2.69,-0.06 3.81,-0.1 7.64,-0.15 11.46,-0.15l0.49 -0.01c136.8,0.04 261.01,53.97 352.56,141.72l0 48.97c-5.29,-5.85 -10.73,-11.56 -16.3,-17.15 -13.37,-13.35 -27.52,-25.92 -42.38,-37.63 -28.25,7.66 -57.33,14.25 -87.15,19.71 33.04,61.3 57.6,137.81 70.16,223.1 25.99,-6.82 51.25,-14.56 75.67,-23.17l0 36.26c-23.11,7.84 -46.92,14.92 -71.33,21.21 3.35,31.27 5.09,63.53 5.09,96.53 0,6.62 -0.07,13.19 -0.2,19.75l-34.37 0c0.15,-6.56 0.22,-13.13 0.22,-19.75 0,-30.22 -1.53,-59.79 -4.41,-88.44 -77.64,17.31 -160.83,26.69 -247.31,26.69 -86.5,0 -169.67,-9.38 -247.31,-26.69 -2.89,28.65 -4.41,58.22 -4.41,88.44 0,6.62 0.07,13.19 0.22,19.75l-34.37 0c-0.15,-6.56 -0.22,-13.13 -0.22,-19.75 0,-33 1.76,-65.26 5.09,-96.53 -24.45,-6.3 -48.27,-13.4 -71.43,-21.23l0 -36.26c24.45,8.62 49.74,16.38 75.78,23.2 12.57,-85.29 37.12,-161.79 70.16,-223.1 -29.82,-5.45 -58.9,-12.04 -87.15,-19.71 -14.86,11.71 -29.02,24.27 -42.37,37.63 -5.61,5.61 -11.1,11.37 -16.42,17.26l0 -49.28c6.18,-5.92 12.51,-11.68 18.98,-17.29l-0.36 -0.12c10.5,-9.08 21.39,-17.72 32.62,-25.93zm69.01 -233.76l464.23 0c46.25,0 88.28,18.91 118.74,49.36 30.46,30.46 49.36,72.49 49.36,118.74l0 464.23c0,46.25 -18.91,88.28 -49.36,118.74 -30.46,30.46 -72.49,49.35 -118.74,49.35l-464.23 0c-46.25,0 -88.28,-18.89 -118.74,-49.35 -30.46,-30.46 -49.35,-72.49 -49.35,-118.74l0 -464.23c0,-46.25 18.89,-88.28 49.35,-118.74 30.46,-30.46 72.49,-49.36 118.74,-49.36zm464.23 38.44l-464.23 0c-35.65,0 -68.05,14.59 -91.56,38.09 -23.52,23.52 -38.11,55.92 -38.11,91.57l0 464.23c0,35.65 14.59,68.05 38.11,91.56 23.5,23.52 55.91,38.11 91.56,38.11l464.23 0c35.65,0 68.05,-14.59 91.57,-38.11 23.5,-23.5 38.09,-55.91 38.09,-91.56l0 -464.23c0,-35.65 -14.59,-68.05 -38.09,-91.57 -23.52,-23.5 -55.92,-38.09 -91.57,-38.09zm-475.21 484.01c76.13,17.21 157.92,26.54 243.15,26.54 85.22,0 167.03,-9.34 243.15,-26.54 -11.94,-83.64 -35.81,-158.24 -68.05,-217.29 -1.48,-2.72 -2.98,-5.38 -4.49,-8.03 -54.89,8.17 -111.99,12.48 -170.61,12.48 -58.63,0 -115.73,-4.31 -170.62,-12.48 -1.51,2.65 -3.01,5.31 -4.49,8.03 -32.24,59.05 -56.11,133.65 -68.04,217.29zm-13.96 -277c22.57,5.43 45.68,10.17 69.25,14.18 18.6,-28.78 39.36,-53.32 61.8,-72.78 -46.99,12.89 -91.08,32.83 -131.04,58.6zm106.7 19.87c48.56,6.5 98.86,9.93 150.42,9.93 51.55,0 101.85,-3.43 150.4,-9.93 -42.21,-59.82 -94.41,-95.38 -150.4,-95.38 -56.01,0 -108.2,35.56 -150.42,95.38zm338.27 -5.69c23.56,-4.01 46.67,-8.76 69.26,-14.18 -39.98,-25.77 -84.07,-45.71 -131.06,-58.6 22.44,19.46 43.2,44 61.8,72.78z"/>
 </g>
</svg>
